<svg version="1.1" xmlns="http://www.w3.org/2000/svg" width="603.7828pt" height="481.75534pt" viewBox="-292.613 557.069 603.7828 481.75537" id="svg-90116fe8-b97d-4a85-b543-356b0b7edaaf"><style><![CDATA[#svg-90116fe8-b97d-4a85-b543-356b0b7edaaf {
  --backup-svg-note-default-stroke-color: black;
  --backup-svg-note-default-fill-color: black;
}

@media (prefers-color-scheme: dark) {
  #svg-90116fe8-b97d-4a85-b543-356b0b7edaaf {
    --backup-svg-note-default-stroke-color: white;
    --backup-svg-note-default-fill-color: white;
  }
}

path {
  stroke: var(--svg-note-default-stroke-color, var(--backup-svg-note-default-stroke-color));
  fill: none;
  stroke-linecap: round;
  stroke-linejoin: round;
}

circle {
  stroke: var(--svg-note-default-stroke-color, var(--backup-svg-note-default-stroke-color));
  fill: var(--svg-note-default-fill-color, var(--backup-svg-note-default-fill-color));
}

]]></style><title></title><g transform="rotate(90,15.741127,859.68882)"><path stroke-width="6.274" d="m -147.925,1017.261 q 0.244,0.502 -7.347,0.929 -0.332,-0.826 10.82,0.595 11.153,1.421 18.42,2.724 7.268,1.303 23.016,3.624 15.748,2.32 47.82,7.819 0.246,0.349 -12.705,-0.939 -12.95,-1.289 -22.777,-1.823 -9.827,-0.534 -14.56,-0.697 -4.734,-0.163 -17.246,-0.646 -12.513,-0.482 -43.664,-0.998 0.232,0.156 3.159,0.247 2.927,0.092 5.022,0.041 2.096,-0.052 3.755,-1.131 1.66,-1.079 2.773,-3.664 1.113,-2.584 1.113,-6.858 0,-4.275 -2.376,-10.616 -2.376,-6.341 -4.672,-11.062 -2.296,-4.721 -3.394,-7.017 -1.099,-2.296 -4.646,-9.216 -3.547,-6.92 -6.864,-15.02 -3.318,-8.1 -5.266,-13.567 -1.948,-5.467 -3.4,-14.221"/><path stroke-width="5" d="m -107.084,1022.758 q -1.445,-0.432 -2.491,-2.078 -1.047,-1.645 -2.095,-5.247 -1.048,-3.602 -1.778,-9.56 -0.73,-5.958 -2.089,-11.265 -1.358,-5.307 -2.637,-10.462 -1.278,-5.155 -1.703,-9.784"/><path stroke-width="5" d="m -106.812,969.259 q 0.686,-0.165 -2.121,-0.993 -0.63,0.495 3.324,3.574 3.953,3.079 8.392,5.204 4.438,2.124 7.948,3.427 3.51,1.302 5.815,1.597 2.304,0.294 3.508,0.172 1.204,-0.123 1.788,-0.828 0.585,-0.705 0.431,-1.55 -0.153,-0.845 -0.804,-1.575 -0.65,-0.73 -1.822,-1.68 -1.172,-0.949 -4.669,-2.69 -3.497,-1.742 -8.82,-3.575 -5.324,-1.834 -10.781,-2.597 0.135,0.031 3.258,1.056"/><path stroke-width="5" d="m -93.357,957.348 q -0.155,-0.211 -0.798,-0.203 -0.643,0.008 -4.173,-2.241 0.482,-0.73 15.644,4.162 0.051,0.675 -5.467,-2.378 -5.518,-3.052 -8.898,-4.802 -3.381,-1.749 -5.517,-3.675 -2.136,-1.926 -3.157,-3.643 -1.02,-1.717 -0.968,-3.192 0.052,-1.475 1.865,-2.25 1.814,-0.774 8.754,-1.962"/><path stroke-width="5.274" d="m -130.805,872.95 q -1.178,0.647 -11.809,-2.946 v -0.032 q 0.693,-0.38 15.076,4.332 14.384,4.712 23,7.248 8.617,2.536 13.47,4.02 4.852,1.484 19.328,5.576 0.011,0.382 -3.315,-1.471 -3.327,-1.853 -5.495,-3.711 -2.168,-1.858 -3.718,-4.168 -1.55,-2.31 -2.105,-7.175 -0.554,-4.865 -0.468,-7.798 0.086,-2.933 0.135,-4.27 0.05,-1.336 -0.005,-2.783 -0.055,-1.447 -0.945,-2.577"/><path stroke-width="5" d="m -112.242,871.55 q -0.141,0.638 -0.594,4.836 -0.008,0.488 -0.848,-0.465 -0.841,-0.954 -1.365,-2.003 -0.524,-1.048 -0.906,-1.454 -0.383,-0.405 -1.191,-6.563 -0.808,-6.158 -1.518,-10.909 -0.71,-4.75 -4.064,-10.981"/><path stroke-width="5" d="m -149.91,862.617 q 0.407,0.8 0.797,4.963 1.017,0.406 -2.553,-4.894 -3.571,-5.299 -5.537,-8.918 -1.967,-3.619 -3.651,-7.436 -1.684,-3.818 -2.783,-9.704 -1.1,-5.885 -1.256,-13.856"/><path stroke-width="5" d="m -100.772,831.375 q -0.516,-0.061 -1.131,0.256 -0.616,0.317 -1.036,0.449 -0.421,0.131 -0.842,0.175 -0.421,0.044 -0.768,0.047 -0.347,0.003 -0.456,0.002 -0.108,-10e-4 -0.348,0 0.317,-0.172 4.55,0.054 4.233,0.227 9.093,-0.03 4.861,-0.256 7.666,-0.974 2.805,-0.718 14.561,-2.563"/><path stroke-width="5" d="m -73.589,847.918 q 0.127,0.134 0.39,1.4 1.544,-1.405 -2.77,-7.462 -4.315,-6.058 -7.238,-9.208 -2.923,-3.149 -4.834,-5.113 -1.911,-1.964 -14.054,-11.584"/><path stroke-width="5" d="m -98.651,804.829 q -0.106,0.02 0.021,0.013 0.127,-0.006 -0.103,-0.13 -0.229,-0.124 -1.911,-0.151 -0.25,0.427 -0.175,0.88 0.075,0.454 4.118,2.431 4.042,1.976 6.779,3.106 2.736,1.13 6.118,1.13 0.932,-2.671 -10.214,-8.081 -0.484,-0.181 5.593,0.622 6.078,0.803 12.851,0.969"/><path stroke-width="5" d="m -93.679,793.248 q 0,0.096 0,0.191 0.351,0.016 5.021,-0.108 4.67,-0.125 10.827,1.902 1.085,1.528 -14.728,-7.514 0.955,-0.683 8.879,2.158 7.923,2.842 15.792,6.018 0.156,0.554 -3.813,-0.876 -3.968,-1.43 -6.073,-2.081 -2.104,-0.65 -3.338,-1.559 -1.233,-0.909 -1.874,-1.439 -0.64,-0.53 -0.884,-0.721 -0.244,-0.19 -0.564,-0.559 -0.32,-0.369 -0.649,-0.787 -0.33,-0.418 -0.463,-0.892 -0.133,-0.474 -0.262,-0.827 -0.129,-0.352 -0.063,-1.033 0.066,-0.681 0.395,-1.175 0.329,-0.494 0.634,-0.698 0.305,-0.205 0.693,-0.423 0.388,-0.219 0.846,-0.419 0.458,-0.201 0.94,-0.318 0.481,-0.118 0.64,-0.22 0.159,-0.102 4.028,-0.404 0,0.064 -0.068,0.49 0.241,0.264 -1.239,-0.293 -0.057,-0.985 -0.034,-0.833 0.008,-1.427 0.034,-1.088 -0.554,-1.635 16.883,1.584"/><path stroke-width="5.143" d="m -72.995,766.956 q -1.43,-0.702 -1.464,-0.543 -0.034,0.159 -0.946,-0.266 -0.913,-0.425 -1.31,-1.166 -0.397,-0.742 -0.412,-0.971 -0.015,-0.229 0.176,-0.436 0.191,-0.206 0.689,-0.383 0.497,-0.177 1.343,-0.256 0.846,-0.078 2.945,0.001 2.098,0.079 3.626,0.108 1.529,0.029 7.893,1.538 6.365,1.508 11.997,3.507 5.632,1.999 10.262,4.588 4.63,2.589 7.594,5.03 2.964,2.44 4.464,4.488 1.499,2.048 1.679,4.296 -2.01,0.949 -7.852,-0.229 -5.843,-1.178 -16.511,-5.854 -10.667,-4.675 -16.629,-7.546 -5.961,-2.87 -9.09,-4.456 -3.13,-1.585 -5.177,-2.528 -2.048,-0.943 -6.363,-3.736 -4.315,-2.793 -7.345,-5.61 -3.031,-2.817 -4.882,-4.879 -1.852,-2.063 -2.307,-3.767 -0.454,-1.704 -0.235,-3.006 0.22,-1.302 2.694,-1.739 2.475,-0.438 4.596,-0.628 2.121,-0.191 7.006,2.457 4.885,2.647 8.062,5.083 3.176,2.437 4.856,4.074 1.68,1.638 2.421,3.052 0.741,1.414 0.762,2.407 0.02,0.993 -0.245,1.43 -0.265,0.438 -0.724,0.594 -0.459,0.157 -1.188,0.417 -0.73,0.261 -5.628,1.43"/><path stroke-width="6.392" d="m -154.95,725.063 q -0.731,-0.161 -3.035,-0.335 -2.303,-0.175 -6.501,-4.106 0.175,-1.254 7.742,0.433 7.567,1.688 12.374,2.964 4.806,1.277 12.093,3.009 7.287,1.731 20.068,4.806 12.78,3.075 19.193,4.513 6.413,1.439 9.704,2.422 3.291,0.984 5.617,2.57"/><path stroke-width="5" d="m -89.573,727.443 q 0.365,0.095 1.926,0.362 0.404,-0.296 0.181,-2.222 -0.222,-1.927 -2.757,-4.285 -2.536,-2.358 -5.091,-3.721 -2.556,-1.362 -4.276,-1.695 -1.719,-0.332 -3.222,0.277 -1.503,0.609 -2.271,1.793 -0.768,1.184 -0.959,2.562 -0.191,1.377 2.553,2.548 2.744,1.171 7.035,1.575 4.291,0.403 8.075,0.2 3.785,-0.204 7.138,-1.395 3.353,-1.191 5.906,-2.718 2.554,-1.527 4.579,-3.696 2.025,-2.17 3.043,-6.275 1.019,-4.106 0.215,-11.32"/><path stroke-width="5.026" d="m -14.389,1029.643 q -0.208,0.037 -4.309,0.127 0.729,-0.42 14.154,0.7 13.425,1.119 21.108,1.562 7.684,0.443 11.736,0.64 4.053,0.198 6.413,0.184 2.359,-0.013 13.56,2.806"/><path stroke-width="5.453" d="m -2.121,1063.328 q -0.041,-0.629 -2.121,7.986 0.155,0.196 2.357,-0.267 2.203,-0.462 3.578,-2.168 1.375,-1.706 1.963,-4.923 0.587,-3.218 -0.57,-7.927 -1.158,-4.709 -4.756,-10.728 -3.598,-6.018 -8.57,-12.527 -4.972,-6.51 -9.248,-12.253 -4.276,-5.743 -8.331,-10.227 -4.054,-4.484 -10.449,-12.443 -6.395,-7.959 -13.908,-18.386"/><path stroke-width="5.509" d="m -44.625,985.281 q -0.091,0.125 -0.924,0.486 -0.834,0.361 -1.624,-0.062 -0.791,-0.423 -1.121,-2.221 -0.329,-1.798 -0.034,-1.048 0.296,0.751 0.202,0.574 -0.094,-0.177 0.536,-0.363 0.63,-0.186 7.165,-0.711 6.535,-0.526 65.164,9.173 0.155,0.523 -5.853,-1.237 -6.007,-1.76 -9.361,-3.15 -3.353,-1.39 -5.148,-2.416 -1.796,-1.025 -2.188,-3.358 0.641,-1.441 8.755,-1.324 8.114,0.117 23.874,2.743"/><path stroke-width="5" d="m 22.143,968.865 q 1.059,0.055 0.899,0.133 1.269,0.259 10.385,-1.19"/><path stroke-width="5" d="m -12.403,957.144 q -0.209,0.846 0.134,1.677 0.343,0.831 9.215,-0.086"/><path stroke-width="5" d="m 2.392,929.478 h 0.162 q 0.614,1.001 0.604,1.757 -0.01,0.757 3.415,3.38 3.424,2.622 12.524,4 0.146,-0.696 0.068,-2.555 -0.078,-1.86 0.088,-2.493 0.167,-0.633 0.898,-1.334 0.732,-0.702 1.182,-0.78 0.451,-0.078 1.015,-0.085 0.565,-0.006 2.05,0.028 1.484,0.033 5.633,2.441 4.148,2.408 11.472,13.648"/><path stroke-width="6.041" d="m -20.819,833.754 q -0.746,-0.346 -10.376,-0.394 -0.534,0.983 -0.184,2.346 0.351,1.364 4.806,4.703 4.454,3.339 11.178,6.505 6.723,3.166 13.618,5.894 6.894,2.728 15.276,5.219 8.381,2.491 14.079,3.947 5.699,1.455 10.463,2.131 4.765,0.676 7.2,0.689 2.434,0.014 3.895,-0.192 1.46,-0.205 2.406,-0.97 0.947,-0.766 1.504,-2.426 0.558,-1.66 -0.969,-3.995 -1.527,-2.335 -3.95,-4.554 -2.424,-2.22 -9.965,-6.678 -7.541,-4.459 -14.483,-7.511 -6.943,-3.052 -11.248,-4.698 -4.305,-1.646 -9.625,-3.323 -5.32,-1.677 -11.413,-2.472 -6.092,-0.795 -9.571,-0.666 -3.479,0.129 -5.352,0.615 -1.874,0.486 -2.861,0.981 -0.988,0.495 -1.264,1.624 -0.277,1.13 0.676,2.169"/><path stroke-width="5" d="m 24.468,816.409 q -0.425,1.152 -0.526,0.865 l -0.068,0.064 q 0.414,-0.352 4.999,0.883 4.586,1.236 8.456,2.267 -0.22,-0.376 -4.283,-3.195 -4.064,-2.819 -6.621,-5.359 -2.558,-2.54 -3.592,-4.124 -1.034,-1.584 -0.817,-2.95 0.745,-1.27 28.514,4.104 v -0.101"/><path stroke-width="5" d="m 29.846,787.025 q 0.004,-0.07 0.492,1.845 0.193,-0.036 0.445,-2.705 0.253,-2.669 -0.783,-5.03 -1.036,-2.361 -2.247,-3.705 -1.211,-1.344 -2.385,-1.778 -1.175,-0.434 -1.863,-0.25 -0.689,0.185 -1.002,0.453 -0.314,0.268 -1.126,1.786 -0.812,1.517 -1.081,2.774 -0.268,1.256 0.521,2.31 0.789,1.054 1.568,1.39 0.779,0.337 1.371,0.531 0.593,0.195 1.397,0.636 0.804,0.442 6.134,1.313 5.329,0.871 8.953,1.144 3.625,0.272 5.49,0.112 1.866,-0.159 3.059,-0.525 1.193,-0.365 0.944,-2.821"/><path stroke-width="5.192" d="m -32.951,723.141 q -1.075,0.742 -1.599,1.445 -0.525,0.702 -0.506,0.688 0.018,-0.014 -0.102,0.154 -0.12,0.167 -0.508,0.787 0.27,-0.357 11.328,2.129 11.058,2.486 18.96,4.168 7.901,1.682 16.645,2.604"/><path stroke-width="5" d="m 46.61,751.533 q -0.026,0.292 -0.87,-1.631 -0.845,-1.923 -2.778,-6.514"/><path stroke-width="5" d="m -71.214,677.532 q 0,-0.038 0,-0.076 0.214,0.409 4.858,3.302 4.644,2.893 8.158,4.497 3.515,1.605 6.82,2.063"/><path stroke-width="5" d="m -225.035,1159.198 q 0.088,0.042 0.948,0.371 0.86,0.328 2.174,2.021"/><path stroke-width="6.696" d="m -222.185,1161.59 q 0.549,-0.204 -2.238,0.177 -2.786,0.382 -13.881,-2.067 0,-0.063 0.034,-0.203 1.039,-0.581 22.296,0.057 21.258,0.638 32.988,0.868 11.73,0.229 21.427,0.305 9.696,0.076 18.436,0.158 8.74,0.083 21.094,10e-4 12.354,-0.081 18.573,-0.379 6.22,-0.298 11.885,-0.61 5.665,-0.312 19.779,-1.076 14.113,-0.763 22.011,-1.2 7.898,-0.437 12.362,-0.617 4.463,-0.18 7.97,-0.377 3.507,-0.197 18.4,-0.559 14.894,-0.361 28.011,-0.484 13.117,-0.123 19.734,-0.185 6.618,-0.063 12.762,-0.171 6.145,-0.108 11.934,-0.316 5.789,-0.208 12.676,-0.436 6.887,-0.228 22.793,-1.95 15.907,-1.722 25.185,-3.142 9.278,-1.421 19.808,-3.225 10.531,-1.804 15.722,-2.742 5.191,-0.937 10.249,-1.931 5.057,-0.994 7.938,-1.838 2.88,-0.844 4.388,-1.878 1.507,-1.034 2.153,-1.708 0.646,-0.673 0.988,-1.486 0.343,-0.813 0.343,-2.314 0,-1.501 -0.104,-2.197 -0.103,-0.697 -1.121,-3.134 -1.018,-2.438 -1.809,-4.047 -0.792,-1.61 -1.161,-4.982 -0.369,-3.372 0.162,-11.496 0.53,-8.125 0.622,-14.639 0.091,-6.514 0.065,-9.782 -0.026,-3.267 0.021,-6.877 0.048,-3.609 0.084,-8.137 0.037,-4.528 0.138,-10.566 0.102,-6.038 0.452,-12.125 0.35,-6.088 0.364,-9.193 0.013,-3.106 2.496,-28.788 2.482,-25.682 3.853,-39.221 1.371,-13.538 1.842,-19.304 0.472,-5.766 0.746,-9.943 0.274,-4.177 0.493,-10.095 0.219,-5.918 0.343,-10.893 0.123,-4.976 0.343,-18.125 0.219,-13.149 -0.304,-28.759 -0.524,-15.609 -1.193,-24.262 -0.668,-8.653 -1.489,-23.773 -0.821,-15.121 -1.188,-22.697 -0.368,-7.577 -0.516,-12.677 -0.149,-5.099 -0.226,-7.865 -0.076,-2.765 -0.197,-6.423 -0.12,-3.659 -0.09,-13.201 0.031,-9.542 -0.044,-23.928 -0.074,-14.387 -0.23,-21.848 -0.156,-7.462 -0.084,-12.207 0.071,-4.746 -1.061,-16.82 -1.133,-12.073 -1.935,-18.401 -0.801,-6.327 -1.516,-10.469 -0.714,-4.142 -1.784,-13.865 -1.07,-9.722 -1.285,-14.832 -0.215,-5.11 -0.873,-10.119 -0.658,-5.008 -2.136,-9.155 -1.478,-4.147 -4.287,-8.025 -2.809,-3.877 -6.151,-6.779 -3.342,-2.901 -9.815,-5.695 -6.474,-2.794 -11.395,-4.506 -4.92,-1.711 -13.66,-3.862 -8.74,-2.152 -17.403,-3.341 -8.663,-1.19 -15.226,-1.862 -6.563,-0.673 -30.971,-1.784 -24.409,-1.111 -37.061,-1.644 -12.653,-0.534 -17.958,-0.741 -5.305,-0.207 -9.552,-0.349 -4.247,-0.141 -6.503,-0.239 -2.256,-0.099 -6.629,-0.208 -4.374,-0.109 -8.167,-0.213 -3.794,-0.104 -15.092,-0.263 -11.298,-0.16 -21.96,-0.141 -10.662,0.019 -15.889,-0.137 -5.228,-0.156 -22.722,1.008 -17.494,1.164 -26.297,1.853 -8.803,0.688 -13.156,1.025 -4.354,0.337 -18.473,1.244 -14.119,0.907 -22.66,1.187 -8.542,0.28 -13.158,0.391 -4.615,0.111 -14.479,0.096 -9.863,-0.015 -16.626,-0.392 -6.763,-0.377 -10.42,-0.583 -3.658,-0.206 -14.395,-0.965 -10.737,-0.758 -38.782,-0.871 -0.233,0.122 2.226,-0.01 2.459,-0.132 4.771,0.804 2.312,0.936 4.662,3.347 2.35,2.41 4.676,6.77 2.325,4.359 4.755,11.815 2.429,7.455 3.972,16.036 1.543,8.581 2.051,13.693 0.507,5.112 0.676,15.728 0.168,10.615 0.142,16.308 -0.026,5.693 0.002,8.731 0.028,3.037 -0.15,18.247 -0.179,15.21 -0.201,24.353 -0.022,9.143 -0.001,14.275 0.021,5.133 -0.001,7.815 -0.023,2.683 0.101,15.01 0.123,12.327 0.238,22.906 0.115,10.579 0.872,25.084 0.756,14.505 1.424,22.808 0.668,8.303 0.946,12.152 0.278,3.849 1.53,17.694 1.251,13.845 1.84,22.276 0.588,8.431 1.038,13.499 0.45,5.068 0.699,31.218 0.25,26.15 0.21,39.648 -0.039,13.498 0.003,19.251 0.041,5.753 -0.07,9.318 -0.112,3.564 -0.99,15.77 -0.879,12.207 -1.449,22.035 -0.571,9.828 -0.817,18.987 -0.247,9.159 -0.826,16.383 -0.579,7.224 -2.319,14.689 -1.741,7.465 -2.56,15.256 -0.82,7.791 -0.741,13.389 0.079,5.597 0.048,12.191 -0.031,6.595 -0.52,15.058 -0.489,8.463 -1.216,14.163 -0.726,5.701 -1.357,8.752 -0.632,3.051 -0.783,6.365 -0.152,3.313 -0.247,5.01 -0.095,1.697 0.413,2.855 0.508,1.157 1.08,1.67 0.571,0.512 1.118,0.886 0.546,0.374 0.721,0.421 0.175,0.047 -0.086,0.015 -0.261,-0.032 1.828,0.403 0.291,-0.911 0.238,-0.827 0.559,-1.652 0.424,-1.196 0.175,-0.356 1.056,-1.922 0.882,-1.566 3.282,-2.818 2.399,-1.252 7.951,-1.407 5.552,-0.156 8.526,-0.131 2.973,0.025 7.029,0.435 4.057,0.411 8.38,0.74 4.322,0.328 13.509,1.501"/></g></svg>